<mxfile host="www.draw.io" modified="2020-06-09T03:10:06.989Z" agent="5.0 (X11; Linux x86_64) AppleWebKit/537.36 (KHTML, like Gecko) Chrome/77.0.3865.120 Safari/537.36" etag="V-I3MvUvrt1uJAAGSyP4" version="13.1.3" type="github">
  <diagram id="NsPrAINzQS3ARWFUSx2h" name="类图">
    <mxGraphModel dx="1021" dy="580" grid="1" gridSize="10" guides="1" tooltips="1" connect="1" arrows="1" fold="1" page="1" pageScale="1" pageWidth="827" pageHeight="1169" math="0" shadow="0">
      <root>
        <mxCell id="0" />
        <mxCell id="1" parent="0" />
      </root>
    </mxGraphModel>
  </diagram>
</mxfile>
